<svg width="20" height="20" viewBox="0 0 20 20" fill="none" xmlns="http://www.w3.org/2000/svg">
<path d="M1.33333 5.33333C1.33333 3.1242 3.1242 1.33333 5.33333 1.33333H10C10.3682 1.33333 10.6667 1.03486 10.6667 0.666667C10.6667 0.298477 10.3682 0 10 0H5.33333C2.38781 0 0 2.38781 0 5.33333V14.6667C0 17.6122 2.38781 20 5.33333 20H14.6667C17.6122 20 20 17.6122 20 14.6667V10C20 9.6318 19.7015 9.33333 19.3333 9.33333C18.9651 9.33333 18.6667 9.6318 18.6667 10V14.6667C18.6667 16.8758 16.8758 18.6667 14.6667 18.6667H5.33333C3.1242 18.6667 1.33333 16.8758 1.33333 14.6667V5.33333Z" fill="black"/>
<path fill-rule="evenodd" clip-rule="evenodd" d="M9.48937 5.27967C8.16487 4.34147 6.33333 5.2886 6.33333 6.9117V13.0883C6.33333 14.7114 8.16487 15.6585 9.48937 14.7203L13.8493 11.632C14.9746 10.835 14.9746 9.16503 13.8493 8.36797L9.48937 5.27967ZM7.66667 6.9117C7.66667 6.37067 8.27717 6.05497 8.71867 6.3677L13.0786 9.456C13.4537 9.72167 13.4537 10.2783 13.0786 10.544L8.71867 13.6323C8.27717 13.945 7.66667 13.6293 7.66667 13.0883V6.9117Z" fill="black"/>
<path d="M20 3.66667C20 4.03487 19.7015 4.33333 19.3333 4.33333H17V6.66667C17 7.03487 16.7015 7.33333 16.3333 7.33333C15.9651 7.33333 15.6667 7.03487 15.6667 6.66667V4.33333H13.3333C12.9651 4.33333 12.6667 4.03487 12.6667 3.66667C12.6667 3.29847 12.9651 3 13.3333 3H15.6667V0.666667C15.6667 0.298477 15.9651 0 16.3333 0C16.7015 0 17 0.298477 17 0.666667V3H19.3333C19.7015 3 20 3.29847 20 3.66667Z" fill="black"/>
</svg>
