<svg width="20" height="20" viewBox="0 0 20 20" fill="none" xmlns="http://www.w3.org/2000/svg">
<path fill-rule="evenodd" clip-rule="evenodd" d="M3.25473 4.3825C2.6946 4.90262 2.3166 5.74883 2.3166 7.08327V12.9166C2.3166 14.251 2.6946 15.0973 3.25473 15.6174C3.82358 16.1456 4.68291 16.4333 5.83327 16.4333H14.1666C15.317 16.4333 16.1763 16.1456 16.7451 15.6174C17.3053 15.0973 17.6833 14.251 17.6833 12.9166V7.08327C17.6833 5.74883 17.3053 4.90262 16.7451 4.3825C16.1763 3.85429 15.317 3.5666 14.1666 3.5666H5.83327C4.68291 3.5666 3.82358 3.85429 3.25473 4.3825ZM2.37014 3.42987C3.25963 2.60392 4.48363 2.2666 5.83327 2.2666H14.1666C15.5162 2.2666 16.7402 2.60392 17.6297 3.42987C18.5279 4.26392 18.9833 5.50105 18.9833 7.08327V12.9166C18.9833 14.4988 18.5279 15.736 17.6297 16.57C16.7402 17.396 15.5162 17.7333 14.1666 17.7333H5.83327C4.48363 17.7333 3.25963 17.396 2.37014 16.57C1.47193 15.736 1.0166 14.4988 1.0166 12.9166V7.08327C1.0166 5.50105 1.47193 4.26392 2.37014 3.42987ZM14.6745 7.09428C14.8985 7.37477 14.8528 7.78378 14.5723 8.00782L11.9639 10.0912L11.9631 10.0918C10.8678 10.9638 9.12369 10.9638 8.02842 10.0918L8.02682 10.0905L5.42682 8.00718C5.14668 7.78271 5.10155 7.37363 5.32602 7.09349C5.5505 6.81334 5.95957 6.76821 6.23972 6.99269L8.83811 9.07474C8.83834 9.07493 8.83858 9.07511 8.83881 9.0753C9.46014 9.56931 10.5317 9.56926 11.1529 9.07515C11.1531 9.07502 11.1532 9.07488 11.1534 9.07474L13.7609 6.99205C14.0414 6.76802 14.4504 6.81378 14.6745 7.09428Z" fill="black"/>
</svg>
