<svg width="180" height="180" viewBox="0 0 180 180" fill="none" xmlns="http://www.w3.org/2000/svg">
<path fill-rule="evenodd" clip-rule="evenodd" d="M76.5484 58.0569C56.2378 58.0569 40.0762 72.1641 40.0762 91.3175C40.0762 110.984 54.6066 121.068 67.5141 121.068C80.2781 121.068 94.7844 111.17 94.7844 93.1559H114.861C114.861 124.281 89.2144 141.125 67.5141 141.125C44.6188 141.125 20 123.129 20 91.3175C20 58.9919 47.37 38 76.5484 38C121.084 38 159.062 82.0769 159.062 137.114H138.986C138.986 89.8613 106.965 58.0569 76.5484 58.0569Z" fill="#ffffff"/>
<path fill-rule="evenodd" clip-rule="evenodd" d="M76.5484 58.0569C56.2378 58.0569 40.0762 72.1641 40.0762 91.3175C40.0762 110.984 54.6066 121.068 67.5141 121.068C80.2781 121.068 94.7844 111.17 94.7844 93.1559H114.861C114.861 124.281 89.2144 141.125 67.5141 141.125C44.6188 141.125 20 123.129 20 91.3175C20 58.9919 47.37 38 76.5484 38C121.084 38 159.062 82.0769 159.062 137.114H138.986C138.986 89.8613 106.965 58.0569 76.5484 58.0569Z" fill="#ffffff"/>
</svg>