<svg width="20" height="20" viewBox="0 0 20 20" fill="none" xmlns="http://www.w3.org/2000/svg">
<path fill-rule="evenodd" clip-rule="evenodd" d="M18.9585 9.99992C18.9585 14.9284 14.9287 18.9583 10.0002 18.9583C5.07165 18.9583 1.04183 14.9284 1.04183 9.99992C1.04183 5.07141 5.07165 1.04158 10.0002 1.04158C14.9287 1.04158 18.9585 5.07141 18.9585 9.99992ZM10.0002 17.7083C14.2383 17.7083 17.7085 14.2381 17.7085 9.99992C17.7085 5.76176 14.2383 2.29158 10.0002 2.29158C5.76201 2.29158 2.29183 5.76176 2.29183 9.99992C2.29183 14.2381 5.76201 17.7083 10.0002 17.7083ZM10.0002 13.9583C9.65498 13.9583 9.37516 13.6784 9.37516 13.3333L9.37516 9.16658C9.37516 8.82141 9.65499 8.54158 10.0002 8.54158C10.3453 8.54158 10.6252 8.82141 10.6252 9.16658L10.6252 13.3333C10.6252 13.6784 10.3453 13.9583 10.0002 13.9583ZM10.6297 6.66658C10.6297 7.01176 10.3499 7.29158 10.0047 7.29158L9.99726 7.29158C9.65208 7.29158 9.37226 7.01176 9.37226 6.66658C9.37226 6.32141 9.65208 6.04158 9.99726 6.04158L10.0047 6.04158C10.3499 6.04158 10.6297 6.32141 10.6297 6.66658Z" fill="#131313"/>
</svg>
