<svg width="20" height="20" viewBox="0 0 20 20" fill="none" xmlns="http://www.w3.org/2000/svg">
<path fill-rule="evenodd" clip-rule="evenodd" d="M2.54108 8.14889C2.39442 8.74179 2.3166 9.36184 2.3166 10.0001C2.3166 10.6383 2.39443 11.2584 2.54111 11.8514C2.59655 11.8549 2.65191 11.8655 2.7058 11.8835C3.71506 12.2205 4.74201 12.4856 5.7791 12.6789C5.58199 10.8986 5.58199 9.10153 5.77911 7.32117C4.74201 7.51445 3.71506 7.77958 2.7058 8.11658C2.65122 8.1348 2.59592 8.14538 2.54108 8.14889ZM3.09212 6.6322C4.03946 6.35171 4.99976 6.13017 5.96758 5.96759C6.12697 5.01882 6.34302 4.07727 6.61572 3.14809C6.59016 3.14611 6.56503 3.14264 6.54039 3.13779C5.04405 3.89364 3.82856 5.12452 3.09212 6.6322ZM8.14872 2.54121C8.74163 2.39454 9.3617 2.31672 9.99993 2.31672C10.6381 2.31672 11.2582 2.39454 11.8511 2.54119C11.8546 2.59604 11.8652 2.65134 11.8834 2.70592C12.2204 3.71515 12.4855 4.74206 12.6788 5.77912C10.8985 5.58201 9.10148 5.58201 7.32117 5.77911C7.51444 4.74205 7.77957 3.71514 8.11655 2.70592C8.13455 2.65202 8.1452 2.59666 8.14872 2.54121ZM7.11285 7.11286C6.87074 9.02987 6.87074 10.9702 7.11285 12.8872C9.02982 13.1293 10.9701 13.1293 12.8871 12.8872C13.1292 10.9702 13.1292 9.02988 12.8871 7.11287C10.9701 6.87077 9.02982 6.87076 7.11285 7.11286ZM14.2208 7.32118C14.418 9.10154 14.418 10.8986 14.2208 12.6789C15.2579 12.4856 16.2848 12.2205 17.2941 11.8835C17.348 11.8655 17.4033 11.8549 17.4588 11.8514C17.6054 11.2584 17.6833 10.6383 17.6833 10.0001C17.6833 9.36184 17.6055 8.74179 17.4588 8.14889C17.4039 8.14538 17.3487 8.1348 17.2941 8.11658C16.2848 7.77959 15.2579 7.51446 14.2208 7.32118ZM16.9077 6.6322C16.1563 5.09383 14.9061 3.84365 13.3678 3.09223C13.6482 4.03953 13.8698 4.99981 14.0324 5.9676C15.0002 6.13018 15.9604 6.35172 16.9077 6.6322ZM16.8519 13.3844C16.8539 13.4099 16.8573 13.435 16.8622 13.4596C16.1063 14.956 14.8755 16.1714 13.3678 16.9079C13.6483 15.9606 13.8698 15.0003 14.0324 14.0325C14.9812 13.8731 15.9227 13.6571 16.8519 13.3844ZM12.6788 14.221C10.8985 14.4181 9.10148 14.4181 7.32117 14.221C7.51444 15.258 7.77957 16.285 8.11655 17.2942C8.13455 17.3481 8.1452 17.4035 8.14872 17.4589C8.74163 17.6056 9.3617 17.6834 9.99993 17.6834C10.6381 17.6834 11.2582 17.6056 11.8511 17.4589C11.8546 17.4041 11.8652 17.3488 11.8834 17.2942C12.2204 16.285 12.4855 15.258 12.6788 14.221ZM6.61572 16.852C6.59016 16.854 6.56503 16.8575 6.54039 16.8623C5.07451 16.1219 3.87815 14.9255 3.13768 13.4596C3.14253 13.435 3.14598 13.4099 3.14796 13.3844C4.07719 13.6571 5.01877 13.8731 5.96758 14.0325C6.12697 14.9813 6.34302 15.9228 6.61572 16.852ZM1.0166 10.0001C1.0166 5.0387 5.03858 1.01672 9.99993 1.01672C14.9613 1.01672 18.9833 5.0387 18.9833 10.0001C18.9833 14.9614 14.9613 18.9834 9.99993 18.9834C5.03858 18.9834 1.0166 14.9614 1.0166 10.0001Z" fill="#242424"/>
</svg>
