<svg width="16" height="16" viewBox="0 0 16 16" fill="none" xmlns="http://www.w3.org/2000/svg">
<path d="M6 1.33325C4.25333 1.33325 2.83333 2.75325 2.83333 4.49992C2.83333 6.21325 4.17333 7.59992 5.92 7.65992C5.97333 7.65325 6.02667 7.65325 6.06667 7.65992C6.08 7.65992 6.08667 7.65992 6.1 7.65992C6.10667 7.65992 6.10667 7.65992 6.11333 7.65992C7.82 7.59992 9.16 6.21325 9.16667 4.49992C9.16667 2.75325 7.74667 1.33325 6 1.33325Z" fill="black"/>
<path d="M9.38664 9.43326C7.52664 8.19326 4.49331 8.19326 2.61997 9.43326C1.77331 9.99992 1.30664 10.7666 1.30664 11.5866C1.30664 12.4066 1.77331 13.1666 2.61331 13.7266C3.54664 14.3533 4.77331 14.6666 5.99997 14.6666C7.22664 14.6666 8.45331 14.3533 9.38664 13.7266C10.2266 13.1599 10.6933 12.3999 10.6933 11.5733C10.6866 10.7533 10.2266 9.99326 9.38664 9.43326Z" fill="black"/>
<path d="M13.3267 4.89326C13.4333 6.18659 12.5133 7.31992 11.24 7.47326C11.2333 7.47326 11.2333 7.47326 11.2267 7.47326H11.2067C11.1667 7.47326 11.1267 7.47326 11.0933 7.48659C10.4467 7.51992 9.85332 7.31326 9.40666 6.93326C10.0933 6.31992 10.4867 5.39992 10.4067 4.39992C10.36 3.85992 10.1733 3.36659 9.89332 2.94659C10.1467 2.81992 10.44 2.73992 10.74 2.71326C12.0467 2.59992 13.2133 3.57326 13.3267 4.89326Z" fill="black"/>
<path d="M14.66 11.0599C14.6067 11.7066 14.1933 12.2666 13.5 12.6466C12.8333 13.0133 11.9933 13.1866 11.16 13.1666C11.64 12.7333 11.92 12.1933 11.9733 11.6199C12.04 10.7933 11.6467 9.99992 10.86 9.36658C10.4133 9.01325 9.89333 8.73325 9.32666 8.52659C10.8 8.09992 12.6533 8.38658 13.7933 9.30658C14.4067 9.79992 14.72 10.4199 14.66 11.0599Z" fill="black"/>
</svg>
