<svg width="20" height="20" viewBox="0 0 20 20" fill="none" xmlns="http://www.w3.org/2000/svg">
<path fill-rule="evenodd" clip-rule="evenodd" d="M4.19409 4.19411C3.52088 4.86732 3.1577 5.97547 3.1577 7.77366V12.2263C3.1577 14.0245 3.52088 15.1327 4.19409 15.8059C4.8673 16.4791 5.97545 16.8423 7.77365 16.8423H12.2263C14.0245 16.8423 15.1327 16.4791 15.8059 15.8059C16.4791 15.1327 16.8423 14.0245 16.8423 12.2263V8.51578C16.8423 8.19609 17.1014 7.93693 17.4211 7.93693C17.7408 7.93693 18 8.19609 18 8.51578V12.2263C18 14.1387 17.6211 15.628 16.6245 16.6245C15.628 17.6211 14.1387 18 12.2263 18H7.77365C5.86127 18 4.37202 17.6211 3.37548 16.6245C2.37893 15.628 2 14.1387 2 12.2263V7.77366C2 5.86129 2.37893 4.37204 3.37548 3.37549C4.37202 2.37895 5.86127 2.00002 7.77365 2.00002H11.4842C11.8039 2.00002 12.0631 2.25918 12.0631 2.57887C12.0631 2.89856 11.8039 3.15771 11.4842 3.15771H7.77365C5.97545 3.15771 4.8673 3.5209 4.19409 4.19411Z" fill="#292D32"/>
<path fill-rule="evenodd" clip-rule="evenodd" d="M11.2627 2.04408C11.479 1.95448 11.728 2.00401 11.8935 2.16956L17.8304 8.10647C17.996 8.27202 18.0455 8.52099 17.9559 8.7373C17.8663 8.9536 17.6553 9.09463 17.4211 9.09463H14.4527C13.3074 9.09463 12.3597 8.91122 11.7243 8.27574C11.0888 7.64025 10.9054 6.69256 10.9054 5.54732V2.57887C10.9054 2.34474 11.0464 2.13367 11.2627 2.04408ZM12.0631 3.97633V5.54732C12.0631 6.62843 12.2507 7.16496 12.5429 7.45712C12.835 7.74928 13.3716 7.93693 14.4527 7.93693H16.0237L12.0631 3.97633Z" fill="#292D32"/>
</svg>
