<svg width="16" height="16" viewBox="0 0 16 16" fill="none" xmlns="http://www.w3.org/2000/svg">
<path d="M14 14.6666H2C1.72667 14.6666 1.5 14.44 1.5 14.1666C1.5 13.8933 1.72667 13.6666 2 13.6666H14C14.2733 13.6666 14.5 13.8933 14.5 14.1666C14.5 14.44 14.2733 14.6666 14 14.6666Z" fill="#242424"/>
<path d="M12.68 2.31994C11.3866 1.02661 10.12 0.993275 8.7933 2.31994L7.98663 3.12661C7.91997 3.19328 7.8933 3.29994 7.91997 3.39328C8.42663 5.15994 9.83997 6.57328 11.6066 7.07994C11.6333 7.08661 11.66 7.09328 11.6866 7.09328C11.76 7.09328 11.8266 7.06661 11.88 7.01328L12.68 6.20661C13.34 5.55328 13.66 4.91994 13.66 4.27994C13.6666 3.61994 13.3466 2.97994 12.68 2.31994Z" fill="#242424"/>
<path d="M10.4066 7.68662C10.2133 7.59328 10.0266 7.49995 9.84664 7.39328C9.69997 7.30662 9.55997 7.21328 9.41997 7.11328C9.30664 7.03995 9.1733 6.93328 9.04664 6.82662C9.0333 6.81995 8.98663 6.77995 8.9333 6.72662C8.7133 6.53995 8.46663 6.29995 8.24663 6.03328C8.22663 6.01995 8.1933 5.97328 8.14664 5.91328C8.07997 5.83328 7.96664 5.69995 7.86664 5.54662C7.78664 5.44662 7.6933 5.29995 7.60664 5.15328C7.49997 4.97328 7.40664 4.79328 7.3133 4.60662C7.29918 4.57635 7.28551 4.54624 7.27226 4.51631C7.17388 4.2941 6.88412 4.22913 6.71228 4.40097L2.8933 8.21995C2.80664 8.30662 2.72664 8.47328 2.70664 8.58662L2.34664 11.14C2.27997 11.5933 2.40664 12.0199 2.68664 12.3066C2.92664 12.54 3.25997 12.6666 3.61997 12.6666C3.69997 12.6666 3.77997 12.66 3.85997 12.6466L6.41997 12.2866C6.53997 12.2666 6.70664 12.1866 6.78664 12.1L10.6008 8.28574C10.7739 8.11271 10.7086 7.81573 10.4835 7.71969C10.4582 7.70888 10.4326 7.69786 10.4066 7.68662Z" fill="#242424"/>
</svg>
