<svg width="20" height="20" viewBox="0 0 20 20" fill="none" xmlns="http://www.w3.org/2000/svg">
<path fill-rule="evenodd" clip-rule="evenodd" d="M8.54637 1.34009C9.07751 1.83951 8.95227 2.59861 8.70434 3.16794L8.7039 3.16895C8.33086 4.02161 8.12577 4.95635 8.13338 5.94509L8.1334 5.94739C8.14858 9.61656 11.199 12.7478 14.935 12.9006L14.9355 12.9006C15.487 12.9236 16.0142 12.8854 16.526 12.7938C16.8656 12.7319 17.1976 12.7212 17.496 12.7908C17.8002 12.8617 18.1044 13.0272 18.2932 13.3361C18.4812 13.6438 18.4905 13.9886 18.419 14.2892C18.3487 14.5852 18.1937 14.8763 17.9906 15.1516C16.2156 17.58 13.2609 19.1175 9.96357 18.9745L9.96317 18.9745C5.28356 18.7687 1.36738 15.0256 1.04337 10.3962C0.747358 6.29252 3.18292 2.71886 6.72249 1.22617C7.29084 0.985442 8.03549 0.859709 8.54637 1.34009ZM7.6142 2.31448C7.53226 2.32124 7.40445 2.34904 7.2288 2.42352L7.22764 2.42401C4.16741 3.71456 2.08639 6.79056 2.34004 10.3033L2.34015 10.3048C2.61651 14.2583 5.98349 17.4982 10.0203 17.6757C12.8721 17.7992 15.4168 16.4707 16.9419 14.3833L16.9439 14.3805C17.0509 14.2357 17.108 14.1236 17.1363 14.0467C17.0563 14.0388 16.9328 14.041 16.7584 14.0729L16.7563 14.0732C16.152 14.1815 15.5297 14.2265 14.8818 14.1995C10.4682 14.019 6.85218 10.3343 6.83341 5.95393C6.82452 4.77668 7.0693 3.66206 7.5126 2.64856C7.57874 2.49661 7.60543 2.38626 7.6142 2.31448ZM7.70118 2.31677C7.70116 2.31679 7.70058 2.31665 7.69949 2.31629L7.70118 2.31677ZM17.2342 14.067C17.2342 14.0671 17.2341 14.067 17.2338 14.0668L17.2342 14.067Z" fill="#292D32"/>
</svg>
