<svg width="20" height="20" viewBox="0 0 20 20" fill="none" xmlns="http://www.w3.org/2000/svg">
<path fill-rule="evenodd" clip-rule="evenodd" d="M9.39344 1.17634C9.66421 1.41204 9.69264 1.82261 9.45694 2.09338L8.33437 3.38297C8.85558 3.28346 9.41033 3.22494 10 3.22494C14.3507 3.22494 17.875 6.74929 17.875 11.0999C17.875 15.4506 14.3507 18.9749 10 18.9749C5.64935 18.9749 2.125 15.4506 2.125 11.0999C2.125 9.48347 2.6157 7.97542 3.45083 6.72272C3.64996 6.42403 4.05353 6.34332 4.35222 6.54245C4.65092 6.74157 4.73163 7.14514 4.5325 7.44383C3.8343 8.49114 3.425 9.74975 3.425 11.0999C3.425 14.7326 6.36732 17.6749 10 17.6749C13.6327 17.6749 16.575 14.7326 16.575 11.0999C16.575 7.46726 13.6327 4.52494 10 4.52494C9.32049 4.52494 8.69361 4.61595 8.11301 4.76339L9.7499 5.95827C10.0399 6.16993 10.1033 6.57656 9.89167 6.86652C9.68001 7.15647 9.27338 7.21994 8.98343 7.00828L6.1751 4.95828C6.02804 4.85094 5.93275 4.68684 5.91241 4.50592C5.89206 4.32499 5.94852 4.14383 6.06806 4.00651L8.4764 1.23984C8.7121 0.96907 9.12267 0.94064 9.39344 1.17634Z" fill="#292D32"/>
</svg>
