<svg width="20" height="20" viewBox="0 0 20 20" fill="none" xmlns="http://www.w3.org/2000/svg">
<path fill-rule="evenodd" clip-rule="evenodd" d="M4.49977 2.4001C3.96269 2.4001 3.48311 2.83814 3.48311 3.5001V5.41676C3.48311 5.54263 3.53099 5.76116 3.64499 6.01546C3.75647 6.26416 3.90321 6.4843 4.04272 6.62381L4.05436 6.63574L7.22102 9.96908C7.23371 9.98243 7.24583 9.99632 7.25734 10.0107C7.47048 10.2771 7.66715 10.6267 7.81162 10.9879C7.95468 11.3455 8.06644 11.7641 8.06644 12.1668V16.5834C8.06644 17.368 8.97151 17.8647 9.6543 17.4495L10.8149 16.7033C10.8206 16.6997 10.8263 16.6962 10.832 16.6927C10.9026 16.6504 11.0187 16.5324 11.121 16.3356C11.2212 16.1429 11.2664 15.9541 11.2664 15.8334V12.2501C11.2664 11.8168 11.3727 11.3556 11.5472 10.9442C11.7193 10.5386 11.9784 10.133 12.3258 9.8407L15.886 6.69445C16.0247 6.55145 16.1864 6.31448 16.3143 6.03321C16.4468 5.7417 16.5164 5.46078 16.5164 5.2501V3.41676C16.5164 2.85908 16.0575 2.4001 15.4998 2.4001H4.49977ZM2.18311 3.5001C2.18311 2.16206 3.20353 1.1001 4.49977 1.1001H15.4998C16.7754 1.1001 17.8164 2.14111 17.8164 3.41676V5.2501C17.8164 5.70608 17.6778 6.17517 17.4978 6.57115C17.317 6.96889 17.068 7.35114 16.7927 7.62638C16.7833 7.63583 16.7735 7.64498 16.7635 7.65383L13.1802 10.8205L13.1659 10.8328C13.0172 10.9567 12.8623 11.173 12.744 11.4519C12.6269 11.728 12.5664 12.0167 12.5664 12.2501V15.8334C12.5664 16.2127 12.445 16.6073 12.2744 16.9354C12.1074 17.2564 11.8518 17.5934 11.5106 17.8016L10.3405 18.5538C8.85718 19.4666 6.76644 18.4636 6.76644 16.5834V12.1668C6.76644 11.9861 6.71153 11.738 6.6046 11.4707C6.50357 11.2181 6.37404 10.9931 6.25773 10.8426L3.11714 7.53668C2.84285 7.26034 2.61686 6.89999 2.45872 6.54723C2.30189 6.19737 2.18311 5.7909 2.18311 5.41676V3.5001Z" fill="#292D32"/>
</svg>
