<svg width="263" height="192" viewBox="0 0 263 192" fill="none" xmlns="http://www.w3.org/2000/svg">
<path d="M46.4464 152.258V134.931H0V118.551L33.5608 47.4258H53.5808L20.02 118.551H46.4464V91.2514H64.2096V118.551H74.0376V134.931H64.2096V152.258H46.4464Z" fill="#343D4A"/>
<path d="M226.323 154.223C221.081 154.223 216.131 153.204 211.472 151.166C206.812 149.127 202.76 146.24 199.314 142.503C195.917 138.766 193.466 134.349 191.961 129.253L208.924 124.667C210.137 128.84 212.345 132.068 215.548 134.349C218.8 136.582 222.367 137.674 226.25 137.625C229.696 137.625 232.778 136.824 235.496 135.223C238.213 133.621 240.349 131.461 241.902 128.743C243.455 125.977 244.232 122.895 244.232 119.498C244.232 114.305 242.557 109.961 239.208 106.467C235.86 102.972 231.54 101.225 226.25 101.225C224.648 101.225 223.071 101.443 221.518 101.88C220.013 102.317 218.557 102.924 217.15 103.7L209.142 89.8682L244.377 59.729L245.906 63.9514H196.038V47.4258H260.32V64.0242L232.001 91.2514L231.856 86.0826C238.213 86.5194 243.625 88.2909 248.09 91.397C252.604 94.5031 256.049 98.5071 258.428 103.409C260.854 108.311 262.068 113.674 262.068 119.498C262.068 126.098 260.442 132.019 257.19 137.261C253.987 142.503 249.667 146.652 244.232 149.71C238.844 152.719 232.875 154.223 226.323 154.223Z" fill="#343D4A"/>
<path d="M185.1 79.4082H168.06V50.0916C168.06 45.7503 167.205 41.4516 165.543 37.4408C163.882 33.43 161.447 29.7857 158.377 26.7159C155.308 23.6462 151.663 21.2112 147.653 19.5498C143.642 17.8885 139.343 17.0334 135.002 17.0334C130.66 17.0334 126.362 17.8885 122.351 19.5498C118.34 21.2112 114.696 23.6462 111.626 26.7159C108.556 29.7857 106.121 33.43 104.46 37.4408C102.799 41.4516 101.944 45.7503 101.944 50.0916V79.4082H84.9033V50.0916C84.9033 22.4753 107.378 0.000488281 135.002 0.000488281C162.625 0.000488281 185.1 22.4753 185.1 50.0989V79.4082Z" fill="#DCDFE3"/>
<path d="M185.1 50.1005V79.4171H168.06V71.5712C174.876 68.8448 177.588 63.3919 177.588 55.8942V50.1005C177.588 23.7338 157.118 2.06519 131.238 0.141282L132.07 0.0863133H132.235L132.821 0.0606614H133.056C133.162 0.0606614 133.276 0.0606614 133.389 0.0606614H134.042C134.357 0.0606614 134.672 0.0606614 134.987 0.0606614C162.629 0.00202813 185.1 22.4732 185.1 50.1005Z" fill="#B7B9BD"/>
<path d="M188.336 73.2744H81.667C77.6193 73.2744 74.3379 76.5558 74.3379 80.6036V165.12C74.3379 169.167 77.6193 172.449 81.667 172.449H188.336C192.383 172.449 195.665 169.167 195.665 165.12V80.6036C195.665 76.5558 192.383 73.2744 188.336 73.2744Z" fill="#117BA6"/>
<path d="M147.252 138.49C147.381 139.294 147.334 140.118 147.113 140.902C146.893 141.687 146.505 142.415 145.976 143.035C145.447 143.655 144.79 144.153 144.05 144.494C143.31 144.836 142.504 145.013 141.689 145.012H128.313C127.498 145.013 126.693 144.836 125.953 144.494C125.213 144.153 124.556 143.655 124.027 143.035C123.498 142.415 123.11 141.687 122.889 140.902C122.669 140.118 122.622 139.294 122.751 138.49L124.653 126.554C122.484 124.486 120.985 121.816 120.348 118.889C119.712 115.961 119.967 112.91 121.08 110.128C122.194 107.347 124.115 104.963 126.596 103.283C129.078 101.604 132.005 100.707 135.001 100.707C137.997 100.707 140.925 101.604 143.406 103.283C145.887 104.963 147.809 107.347 148.922 110.128C150.036 112.91 150.291 115.961 149.654 118.889C149.017 121.816 147.518 124.486 145.35 126.554L147.252 138.49Z" fill="#CCE4ED"/>
<path d="M80.1319 81.652V127.122C80.1319 127.122 95.131 90.1794 126.24 79.0684H82.7154C82.3755 79.066 82.0384 79.1311 81.7239 79.2601C81.4093 79.3891 81.1236 79.5793 80.8832 79.8197C80.6428 80.0601 80.4526 80.3459 80.3236 80.6604C80.1946 80.975 80.1295 81.312 80.1319 81.652Z" fill="#CCE4ED"/>
<path d="M122.052 116.555C122.049 118.584 122.46 120.593 123.259 122.459C124.057 124.324 125.228 126.007 126.698 127.406L124.796 139.341C124.626 140.402 124.763 141.489 125.191 142.474C125.619 143.459 126.32 144.301 127.211 144.901C125.783 144.616 124.521 143.788 123.689 142.593C122.858 141.397 122.522 139.926 122.752 138.487L124.654 126.552C122.049 124.069 120.424 120.732 120.075 117.151C119.727 113.569 120.678 109.982 122.755 107.043C124.831 104.105 127.896 102.011 131.388 101.144C134.881 100.277 138.568 100.695 141.778 102.322C139.524 101.575 137.125 101.374 134.778 101.734C132.431 102.095 130.203 103.008 128.278 104.397C126.352 105.787 124.783 107.613 123.701 109.727C122.619 111.84 122.054 114.18 122.052 116.555Z" fill="#343D4A"/>
<path d="M124.778 3.74854C124.778 3.74854 90.3563 10.3778 87.6299 47.7235H94.1052C94.1052 47.7235 95.4684 18.055 124.778 3.74854Z" fill="#FBFCFD"/>
</svg>
